<?xml version="1.0" encoding="UTF-8"?>
<svg width="256px" height="224px" viewBox="0 0 256 224" version="1.1" xmlns="http://www.w3.org/2000/svg" xmlns:xlink="http://www.w3.org/1999/xlink">
    <!-- Generator: Sketch 50.2 (55047) - http://www.bohemiancoding.com/sketch -->
    <title>Icon</title>
    <desc>Created with Sketch.</desc>
    <defs>
        <path d="M134.091956,224 L12.1839115,224 C7.33197133,224 2.94328174,221.063111 1.01713464,216.533333 C-0.921203264,211.991111 -0.0434653453,206.714667 3.26024265,203.093333 L31.3722377,172.181333 C18.7791367,154.211556 12.1839115,133.591111 12.1839115,112 C12.1839115,50.2382222 66.8718601,0 134.091956,0 C201.312051,0 256,50.2382222 256,112 C256,173.761778 201.312051,224 134.091956,224 Z M40.137426,199.111111 L134.091956,199.111111 C187.865594,199.111111 231.618391,160.035556 231.618391,112 C231.618391,63.9768889 187.865594,24.8888889 134.091956,24.8888889 C80.3183174,24.8888889 36.5655203,63.9768889 36.5655203,112 C36.5655203,131.127111 43.4898973,149.333333 56.5828212,164.664889 C60.6789315,169.468444 60.5692143,176.648889 56.3268143,181.315556 L40.137426,199.111111 Z M78.2824531,124.444444 C87.6937541,146.396444 109.100807,161.777778 134.091956,161.777778 C159.083105,161.777778 180.490157,146.396444 189.901458,124.444444 L78.2824531,124.444444 Z M97.5195425,93.3333333 C105.935537,93.3333333 112.758048,86.3688739 112.758048,77.7777778 C112.758048,69.1866817 105.935537,62.2222222 97.5195425,62.2222222 C89.1035483,62.2222222 82.2810369,69.1866817 82.2810369,77.7777778 C82.2810369,86.3688739 89.1035483,93.3333333 97.5195425,93.3333333 Z M170.664369,93.3333333 C179.080363,93.3333333 185.902875,86.3688739 185.902875,77.7777778 C185.902875,69.1866817 179.080363,62.2222222 170.664369,62.2222222 C162.248375,62.2222222 155.425863,69.1866817 155.425863,77.7777778 C155.425863,86.3688739 162.248375,93.3333333 170.664369,93.3333333 Z" id="path-1"></path>
    </defs>
    <g id="ABOUT-US--GC" stroke="none" stroke-width="1" fill="none" fill-rule="evenodd">
        <g id="DSK--mySomething-something--GC" transform="translate(-1272.000000, -1344.000000)">
            <g id="CONTENT" transform="translate(360.000000, 192.000000)">
                <g id="POINTS" transform="translate(0.000000, 694.000000)">
                    <g id="QUOTES" transform="translate(32.000000, 458.000000)">
                        <g id="Image-(3)" transform="translate(880.000000, 0.000000)">
                            <g id="Icon">
                                <mask id="mask-2" fill="white">
                                    <use xlink:href="#path-1"></use>
                                </mask>
                                <use fill="#E8E8E8" xlink:href="#path-1"></use>
                            </g>
                        </g>
                    </g>
                </g>
            </g>
        </g>
    </g>
</svg>