<svg xmlns="http://www.w3.org/2000/svg" width="48" height="46" viewBox="0 0 48 46">
  <path fill="#F18816" fill-rule="evenodd" d="M32,32.2 L32,27.6 C38.3017143,27.6 43.4285714,22.4434 43.4285714,16.1 C43.4285714,9.7612 38.3017143,4.6 32,4.6 C29.2297143,4.6 26.5577143,5.6097 24.4731429,7.4428 L21.4651429,3.9813 C24.3794286,1.4145 28.1234286,0 32,0 C40.8228571,0 48,7.2243 48,16.1 C48,24.978 40.8228571,32.2 32,32.2 Z M11.4285714,13.8 C7.641476,13.8 4.57142857,10.7107648 4.57142857,6.9 C4.57142857,3.08923523 7.641476,0 11.4285714,0 C15.2156669,0 18.2857143,3.08923523 18.2857143,6.9 C18.2857143,10.7107648 15.2156669,13.8 11.4285714,13.8 Z M11.4285714,13.8 C17.7302857,13.8 22.8571429,18.9589 22.8571429,25.3 L22.8571429,32.2 C22.8571429,33.4696 21.8331429,34.5 20.5714286,34.5 L18.2857143,34.5 L18.2857143,43.7 C18.2857143,44.9696 17.2617143,46 16,46 L6.85714286,46 C5.59542857,46 4.57142857,44.9696 4.57142857,43.7 L4.57142857,34.5 L2.28571429,34.5 C1.024,34.5 0,33.4696 0,32.2 L0,25.3 C0,18.9589 5.12685714,13.8 11.4285714,13.8 Z M34.9554286,22.3261 L29.7142857,17.0522 L29.7142857,9.2 L34.2857143,9.2 L34.2857143,15.1478 L38.1874286,19.0739 L34.9554286,22.3261 Z"/>
</svg>
