<?xml version="1.0" encoding="UTF-8"?>
<svg width="48px" height="48px" viewBox="0 0 48 48" version="1.1" xmlns="http://www.w3.org/2000/svg" xmlns:xlink="http://www.w3.org/1999/xlink">
    <!-- Generator: Sketch 50.2 (55047) - http://www.bohemiancoding.com/sketch -->
    <title>Icon</title>
    <desc>Created with Sketch.</desc>
    <defs>
        <path d="M37.9990796,19.9995156 C43.512946,19.9995156 47.9988373,15.5136242 47.9988373,9.99975778 C47.9988373,4.48589134 43.512946,0 37.9990796,0 C32.4852131,0 27.9993218,4.48589134 27.9993218,9.99975778 C27.9993218,15.5136242 32.4852131,19.9995156 37.9990796,19.9995156 Z M37.9990796,3.99990311 C41.3069994,3.99990311 43.9989342,6.6918379 43.9989342,9.99975778 C43.9989342,13.3076777 41.3069994,15.9996124 37.9990796,15.9996124 C34.6911597,15.9996124 31.9992249,13.3076777 31.9992249,9.99975778 C31.9992249,6.6918379 34.6911597,3.99990311 37.9990796,3.99990311 Z M41.4129969,30.5872591 C40.9010093,30.0712716 40.1490275,29.8792762 39.4490444,30.0772714 L26.339362,33.8231807 L23.1394395,31.6892324 L25.4133844,29.4152875 C26.0213697,28.8053023 26.173366,27.8753248 25.7893753,27.1053434 L23.7894238,23.1054403 C23.3454345,22.2154619 22.3154595,21.7874722 21.3674824,22.1034646 L11.8537129,25.2753878 C11.5617199,24.5294058 10.8457373,23.9994187 9.99975778,23.9994187 L1.99995156,23.9994187 C0.895978297,23.9994187 0,24.895397 0,25.9993702 L0,41.9989827 C0,43.1029559 0.895978297,43.9989342 1.99995156,43.9989342 L9.99975778,43.9989342 C10.8117381,43.9989342 11.5017214,43.510946 11.8157138,42.8169629 L25.2973872,47.8708404 C25.5233818,47.9568383 25.761376,47.9988373 25.9993702,47.9988373 C26.2513641,47.9988373 26.503358,47.9508385 26.7433522,47.8568408 L46.7428678,39.8570345 C47.3668526,39.6070406 47.8248415,39.0610538 47.9588383,38.4010698 C48.094835,37.7410858 47.88884,37.0611023 47.4148515,36.5871138 L41.4129969,30.5872591 Z M3.99990311,39.9990311 L3.99990311,27.9993218 L7.99980622,27.9993218 L7.99980622,39.9990311 L3.99990311,39.9990311 Z M25.9753708,43.8549377 L11.9997093,38.6130647 L11.9997093,29.4412868 L20.9874916,26.4453594 L21.5674776,27.6053313 L18.5875498,30.5872591 C18.16356,31.0092489 17.9535651,31.5992346 18.0115637,32.1972201 C18.0695623,32.7912057 18.3935545,33.3291927 18.8915424,33.6611846 L24.8913971,37.6610877 C25.3793852,37.9890798 25.9853706,38.0830775 26.5513569,37.9210814 L39.4190452,34.2451705 L42.4429719,37.2670973 L25.9753708,43.8549377 Z" id="path-1"></path>
    </defs>
    <g id="ABOUT-US--GC" stroke="none" stroke-width="1" fill="none" fill-rule="evenodd">
        <g id="DSK--mySomething-something--GC" transform="translate(-392.000000, -1020.000000)">
            <g id="CONTENT" transform="translate(360.000000, 192.000000)">
                <g id="POINTS" transform="translate(0.000000, 694.000000)">
                    <g id="COMMUNITY-(4)" transform="translate(32.000000, 134.000000)">
                        <g id="Icon">
                            <mask id="mask-2" fill="white">
                                <use xlink:href="#path-1"></use>
                            </mask>
                            <use fill="#CC3582" fill-rule="nonzero" xlink:href="#path-1"></use>
                        </g>
                    </g>
                </g>
            </g>
        </g>
    </g>
</svg>