<?xml version="1.0" encoding="UTF-8"?>
<svg width="48px" height="46px" viewBox="0 0 48 46" version="1.1" xmlns="http://www.w3.org/2000/svg" xmlns:xlink="http://www.w3.org/1999/xlink">
    <!-- Generator: Sketch 50.2 (55047) - http://www.bohemiancoding.com/sketch -->
    <title>Icon</title>
    <desc>Created with Sketch.</desc>
    <defs>
        <path d="M47.862485,19.96025 L41.3170623,1.96025 C40.9963365,1.08275 40.1825223,0.5 39.2727086,0.5 L8.72740236,0.5 C7.81758859,0.5 7.00377436,1.08275 6.68304865,1.96025 L0.137625891,19.96025 C-0.111100174,20.651 -0.0194642556,21.425 0.386351955,22.03025 C0.796531781,22.63775 1.46634671,23 2.1819796,23 L4.36378718,23 L4.36378718,43.25 C4.36378718,44.492 5.33905518,45.5 6.54559477,45.5 L41.4545161,45.5 C42.6610557,45.5 43.6363237,44.492 43.6363237,43.25 L43.6363237,23 L45.8181313,23 C46.5337642,23 47.2035791,22.63775 47.6115771,22.03025 C48.0195752,21.425 48.1112111,20.651 47.862485,19.96025 Z M42.669783,18.5 L36.6152669,18.5 L33.3425555,5 L37.7607159,5 L42.669783,18.5 Z M15.885913,18.5 L19.1586244,5 L21.8182479,5 L21.8182479,18.5 L15.885913,18.5 Z M26.181863,5 L28.8414865,5 L32.1141979,18.5 L26.181863,18.5 L26.181863,5 Z M10.239395,5 L14.6575554,5 L11.384844,18.5 L5.33032794,18.5 L10.239395,5 Z M28.3636706,41 L28.3636706,29.75 L32.7272858,29.75 L32.7272858,41 L28.3636706,41 Z M39.2727086,41 L37.090901,41 L37.090901,27.5 C37.090901,26.258 36.115633,25.25 34.9090934,25.25 L26.181863,25.25 C24.9753234,25.25 24.0000555,26.258 24.0000555,27.5 L24.0000555,41 L8.72740236,41 L8.72740236,23 L39.2727086,23 L39.2727086,41 Z M13.0910175,36.5 L19.6364403,36.5 C20.8429799,36.5 21.8182479,35.492 21.8182479,34.25 L21.8182479,27.5 C21.8182479,26.258 20.8429799,25.25 19.6364403,25.25 L13.0910175,25.25 C11.8844779,25.25 10.9092099,26.258 10.9092099,27.5 L10.9092099,34.25 C10.9092099,35.492 11.8844779,36.5 13.0910175,36.5 Z" id="path-1"></path>
    </defs>
    <g id="ABOUT-US--GC" stroke="none" stroke-width="1" fill="none" fill-rule="evenodd">
        <g id="DSK--mySomething-something--GC" transform="translate(-792.000000, -1025.000000)">
            <g id="CONTENT" transform="translate(360.000000, 192.000000)">
                <g id="POINTS" transform="translate(0.000000, 694.000000)">
                    <g id="SMALL-BUSINESS-(4)" transform="translate(432.000000, 139.000000)">
                        <g id="Icon">
                            <mask id="mask-2" fill="white">
                                <use xlink:href="#path-1"></use>
                            </mask>
                            <use fill="#6C4796" xlink:href="#path-1"></use>
                        </g>
                    </g>
                </g>
            </g>
        </g>
    </g>
</svg>