<svg xmlns="http://www.w3.org/2000/svg" width="44" height="44" viewBox="0 0 44 44">
  <g fill="none" fill-rule="evenodd">
    <rect width="44" height="44" fill="#AF359E" rx="22"/>
    <path fill="#FFF" fill-rule="nonzero" d="M11.4074074,16.5029185 L11.4074074,27.4970815 C11.4074074,30.3038456 13.6711573,32.5797872 16.4631786,32.5797872 L27.5368214,32.5797872 C30.32937,32.5797872 32.5925926,30.3043804 32.5925926,27.4970815 L32.5925926,16.5029185 C32.5925926,13.6961544 30.3288427,11.4202128 27.5368214,11.4202128 L16.4631786,11.4202128 C13.67063,11.4202128 11.4074074,13.6956196 11.4074074,16.5029185 Z M9,16.5029185 C9,12.3590077 12.3410211,9 16.4631786,9 L27.5368214,9 C31.6584528,9 35,12.3595436 35,16.5029185 L35,27.4970815 C35,31.6409923 31.6589789,35 27.5368214,35 L16.4631786,35 C12.3415472,35 9,31.6404564 9,27.4970815 L9,16.5029185 Z M22.0343915,28.9840426 C18.2546015,28.9840426 15.1904762,25.9036187 15.1904762,22.1037234 C15.1904762,18.3038281 18.2546015,15.2234043 22.0343915,15.2234043 C25.8141816,15.2234043 28.8783069,18.3038281 28.8783069,22.1037234 C28.8783069,25.9036187 25.8141816,28.9840426 22.0343915,28.9840426 Z M22.0343915,26.5638298 C24.4846072,26.5638298 26.4708995,24.5669721 26.4708995,22.1037234 C26.4708995,19.6404747 24.4846072,17.643617 22.0343915,17.643617 C19.5841759,17.643617 17.5978836,19.6404747 17.5978836,22.1037234 C17.5978836,24.5669721 19.5841759,26.5638298 22.0343915,26.5638298 Z M28.9470899,16.7101064 C29.8587981,16.7101064 30.5978836,15.9670896 30.5978836,15.0505319 C30.5978836,14.1339742 29.8587981,13.3909574 28.9470899,13.3909574 C28.0353818,13.3909574 27.2962963,14.1339742 27.2962963,15.0505319 C27.2962963,15.9670896 28.0353818,16.7101064 28.9470899,16.7101064 Z"/>
  </g>
</svg>
