<svg xmlns="http://www.w3.org/2000/svg" width="44" height="44" viewBox="0 0 44 44">
  <g fill="none" fill-rule="evenodd">
    <rect width="44" height="44" fill="#3653A4" rx="22"/>
    <path fill="#FFF" d="M28,9.18028846 L28,13.1466346 L25.6377315,13.1466346 C24.7750728,13.1466346 24.1932885,13.3269213 23.8923611,13.6875 C23.5914337,14.0480787 23.4409722,14.5889387 23.4409722,15.3100962 L23.4409722,18.1496394 L27.849537,18.1496394 L27.2627315,22.5967548 L23.4409722,22.5967548 L23.4409722,34 L18.8368056,34 L18.8368056,22.5967548 L15,22.5967548 L15,18.1496394 L18.8368056,18.1496394 L18.8368056,14.874399 C18.8368056,13.011409 19.3584053,11.5666117 20.4016204,10.5399639 C21.4448355,9.51331618 22.8340963,9 24.5694444,9 C26.0439889,9 27.1874959,9.06009555 28,9.18028846 Z"/>
  </g>
</svg>
