<svg xmlns="http://www.w3.org/2000/svg" width="44" height="44" viewBox="0 0 44 44">
  <g fill="none" fill-rule="evenodd">
    <rect width="44" height="44" fill="#FC0D1B" rx="22"/>
    <path fill="#FFF" d="M35.1753608,15.3869733 C34.8590877,14.2013939 33.9272376,13.2676686 32.7440711,12.9507956 C30.5994966,12.375 22,12.375 22,12.375 C22,12.375 13.4005537,12.375 11.2559289,12.9507956 C10.0727624,13.2677188 9.1409123,14.2013939 8.82463919,15.3869733 C8.25,17.5359049 8.25,22.0194505 8.25,22.0194505 C8.25,22.0194505 8.25,26.5029961 8.82463919,28.6519277 C9.1409123,29.8375072 10.0727624,30.7323314 11.2559289,31.0492044 C13.4005537,31.625 22,31.625 22,31.625 C22,31.625 30.5994463,31.625 32.7440711,31.0492044 C33.9272376,30.7323314 34.8590877,29.8375072 35.1753608,28.6519277 C35.75,26.5029961 35.75,22.0194505 35.75,22.0194505 C35.75,22.0194505 35.75,17.5359049 35.1753608,15.3869733 Z M19.1874805,26.0901738 L19.1874805,17.9487272 L26.3749519,22.0195508 L19.1874805,26.0901738 Z"/>
  </g>
</svg>
