<svg xmlns="http://www.w3.org/2000/svg" width="44" height="44" viewBox="0 0 44 44">
  <g fill="none" fill-rule="evenodd">
    <rect width="44" height="44" fill="#1DA1F2" rx="22"/>
    <path fill="#FFF" d="M36,14.375 C35.2914516,15.3958384 34.4348612,16.2656214 33.430203,16.984375 C33.4407784,17.1302091 33.446066,17.3489569 33.446066,17.640625 C33.446066,18.9947984 33.2451374,20.3463474 32.8432741,21.6953125 C32.4414109,23.0442776 31.8306936,24.3385355 31.0111041,25.578125 C30.1915145,26.8177145 29.2159532,27.9140577 28.0843909,28.8671875 C26.9528285,29.8203173 25.588629,30.5807263 23.9917513,31.1484375 C22.3948736,31.7161487 20.6869803,32 18.8680203,32 C16.0021007,32 13.3794535,31.2447992 11,29.734375 C11.3701372,29.7760419 11.7825696,29.796875 12.2373096,29.796875 C14.6167632,29.796875 16.7370888,29.0781322 18.5983503,27.640625 C17.4879386,27.6197916 16.4938707,27.2838574 15.6161168,26.6328125 C14.7383628,25.9817676 14.1355769,25.1510467 13.8077411,24.140625 C14.1567276,24.1927086 14.4792709,24.21875 14.7753807,24.21875 C15.2301207,24.21875 15.6795663,24.1614589 16.123731,24.046875 C14.9392919,23.8072905 13.958443,23.2265671 13.1811548,22.3046875 C12.4038667,21.3828079 12.0152284,20.3125061 12.0152284,19.09375 L12.0152284,19.03125 C12.7343522,19.4270853 13.5063411,19.6406248 14.3312183,19.671875 C13.6332452,19.2135394 13.0780477,18.614587 12.6656091,17.875 C12.2531705,17.135413 12.0469543,16.3333377 12.0469543,15.46875 C12.0469543,14.5520787 12.2796085,13.7031289 12.7449239,12.921875 C14.0245411,14.4739661 15.5817379,15.7161412 17.4165609,16.6484375 C19.251384,17.5807338 21.2157256,18.0989578 23.3096447,18.203125 C23.2250419,17.8072897 23.1827411,17.4218769 23.1827411,17.046875 C23.1827411,15.6510347 23.6824189,14.4609424 24.6817893,13.4765625 C25.6811598,12.4921826 26.8893753,12 28.3064721,12 C29.7870209,12 31.0348934,12.5312447 32.0501269,13.59375 C33.2028399,13.3749989 34.286797,12.968753 35.3020305,12.375 C34.9107425,13.5729227 34.159904,14.4999967 33.0494924,15.15625 C34.0329998,15.0520828 35.0164925,14.7916687 36,14.375 Z"/>
  </g>
</svg>
