<?xml version="1.0" encoding="UTF-8"?>
<svg width="16px" height="16px" viewBox="0 0 16 16" version="1.1" xmlns="http://www.w3.org/2000/svg" xmlns:xlink="http://www.w3.org/1999/xlink">
    <!-- Generator: sketchtool 60.1 (101010) - https://sketch.com -->
    <title>9F1EDD19-A660-4F8F-A974-19A88CF95644</title>
    <desc>Created with sketchtool.</desc>
    <g id="Asset-Artboard-Page" stroke="none" stroke-width="1" fill="none" fill-rule="evenodd">
        <g id="Icon-Icons/01-thelott.com/Streamline/Help-Centre/01-Solid" fill="#FFFFFF">
            <path d="M15.3033333,6.71466667 C15.2452283,6.69596335 15.2018398,6.64721515 15.19,6.58733333 C14.611904,3.66927666 12.3307233,1.38809599 9.41266667,0.81 C9.35278485,0.79816019 9.30403665,0.754771741 9.28533333,0.696666667 C9.15335274,0.282065213 8.76843458,0.000384905634 8.33333333,0 L7.66666667,0 C7.23156542,0.000384905634 6.84664726,0.282065213 6.71466667,0.696666667 C6.69596335,0.754771741 6.64721515,0.79816019 6.58733333,0.81 C3.66927666,1.38809599 1.38809599,3.66927666 0.81,6.58733333 C0.79816019,6.64721515 0.754771741,6.69596335 0.696666667,6.71466667 C0.282065213,6.84664726 0.000384905634,7.23156542 0,7.66666667 L0,8.33333333 C0.000384905634,8.76843458 0.282065213,9.15335274 0.696666667,9.28533333 C0.754771741,9.30403665 0.79816019,9.35278485 0.81,9.41266667 C1.38809599,12.3307233 3.66927666,14.611904 6.58733333,15.19 C6.64721515,15.2018398 6.69596335,15.2452283 6.71466667,15.3033333 C6.84664726,15.7179348 7.23156542,15.9996151 7.66666667,16 L8.33333333,16 C8.76843458,15.9996151 9.15335274,15.7179348 9.28533333,15.3033333 C9.30403665,15.2452283 9.35278485,15.2018398 9.41266667,15.19 C12.3307233,14.611904 14.611904,12.3307233 15.19,9.41266667 C15.2018398,9.35278485 15.2452283,9.30403665 15.3033333,9.28533333 C15.7179348,9.15335274 15.9996151,8.76843458 16,8.33333333 L16,7.66666667 C15.9996151,7.23156542 15.7179348,6.84664726 15.3033333,6.71466667 Z M13.7933331,6.45666666 C13.8068021,6.50668875 13.7962454,6.56012983 13.7647675,6.60127309 C13.7332897,6.64241636 13.6844701,6.66658335 13.6326664,6.66666667 L11.5239998,6.66666667 C11.4571999,6.66666667 11.396852,6.62678689 11.3706664,6.56533333 C10.9980195,5.69679002 10.3058764,5.00464688 9.43733306,4.63199997 C9.37393182,4.60627676 9.33269247,4.54441773 9.3333257,4.47599997 L9.3333257,2.36733327 C9.33312111,2.31482391 9.35786507,2.26533599 9.39999973,2.23399994 C9.44091746,2.20197827 9.49462949,2.19133487 9.5446664,2.20533327 C11.6182525,2.76241282 13.2375547,4.38273141 13.7933331,6.45666666 L13.7933331,6.45666666 Z M8.00000025,10.3333337 C7.05625498,10.3333337 6.20543695,9.76483522 5.84428127,8.89292828 C5.48312559,8.02102135 5.68275569,7.01741305 6.35008437,6.35008437 C7.01741305,5.68275569 8.02102135,5.48312559 8.89292828,5.84428127 C9.76483522,6.20543695 10.3333337,7.05625498 10.3333337,8.00000025 C10.3333337,9.2886647 9.2886647,10.3333337 8.00000025,10.3333337 L8.00000025,10.3333337 Z M6.484,2.20000001 C6.52753954,2.18842696 6.57398449,2.19770001 6.60974176,2.22510521 C6.64549902,2.25251042 6.66652525,2.29494885 6.66666667,2.34000002 L6.66666667,4.47333342 C6.66666667,4.54013329 6.62678689,4.6004812 6.56533333,4.62666675 C5.69679002,4.99931366 5.00464688,5.69145682 4.63199997,6.56000015 C4.60581442,6.62145371 4.54546651,6.66133483 4.47866663,6.66133483 L2.36733327,6.66133483 C2.31482391,6.66154543 2.26533599,6.63680147 2.23399994,6.59466681 C2.20197827,6.55374908 2.19133487,6.50003705 2.20533327,6.45000014 C2.76711952,4.36907938 4.39934976,2.7477849 6.484,2.20000001 Z M2.20666673,9.54333333 C2.1931977,9.49331125 2.20375446,9.43987017 2.23523232,9.39872691 C2.26671018,9.35758364 2.31552975,9.33341665 2.36733339,9.33333333 L4.47600001,9.33333333 C4.54279988,9.33333333 4.60314779,9.37321311 4.62933334,9.43466667 C5.00198023,10.30321 5.69412334,10.9953531 6.56266662,11.368 C6.62412018,11.3941855 6.66400131,11.4545334 6.66400131,11.5213333 L6.66400131,13.6299999 C6.6642119,13.6825093 6.63946794,13.7319972 6.59733329,13.7633333 C6.55641556,13.7953549 6.50270354,13.8059983 6.45266663,13.7919999 C4.38078413,13.2345736 2.76279218,11.6155654 2.20666673,9.54333333 L2.20666673,9.54333333 Z M9.54333333,13.7933331 C9.49331125,13.8068021 9.43987017,13.7962454 9.39872691,13.7647675 C9.35758364,13.7332897 9.33341665,13.6844701 9.33333333,13.6326665 L9.33333333,11.5239998 C9.33333333,11.4572 9.37321311,11.3968521 9.43466667,11.3706665 C10.30321,10.9980196 10.9953531,10.3058765 11.368,9.43733322 C11.3941855,9.37587966 11.4545334,9.33599854 11.5213333,9.33599854 L13.6299999,9.33599854 C13.6825093,9.33578794 13.7319972,9.3605319 13.7633333,9.40266655 C13.7953549,9.44358428 13.8059983,9.49729631 13.7919999,9.54733321 C13.2345736,11.6192157 11.6155654,13.2372077 9.54333333,13.7933331 L9.54333333,13.7933331 Z" id="🚀-Icon"></path>
        </g>
    </g>
</svg>