<svg xmlns="http://www.w3.org/2000/svg" xmlns:xlink="http://www.w3.org/1999/xlink" width="127" height="24" viewBox="0 0 127 24">
  <defs>
    <path id="lottbytts-a" d="M-5.68434189e-14,4.58765491 C2.18141289,2.88971181 4.72547664,1.52817686 7.6029887,0.577370257 C8.87608196,0.157187948 10.7781487,-0.0778496522 12.7599057,0.0234116065 C12.7962224,0.0161981763 12.8324818,0.00909404051 12.8687985,0.00204455191 C12.8687985,0.00204455191 12.8951898,0.0025910239 12.9157865,0.00379326226 C13.746596,0.0542326264 14.5729878,0.161723666 15.3808484,0.337742292 L15.40374,0.361131293 L15.3988634,0.370967788 C15.919862,0.486491966 16.4290419,0.630596628 16.9158466,0.806615254 L16.9408036,0.80415613 C16.9408036,0.80415613 16.9681129,0.800768004 16.9817101,0.800986593 C16.9817101,0.800986593 17.0438444,0.823228002 17.0873327,0.839731456 C17.5624334,1.0213241 18.0210683,1.23406564 18.4597949,1.49347589 C18.4665649,1.49746514 18.5012752,1.52795827 18.4918087,1.54615579 C19.0698929,1.89387591 19.5829168,2.30804703 20.0037432,2.79571863 C18.1982916,2.01136739 15.746081,2.69593284 13.3511281,4.57945783 C12.7002958,4.33999381 12.0255965,4.15763611 11.3414308,4.01418721 C11.3414308,4.01418721 11.3366689,4.0114002 11.3332839,4.00680984 C11.3063189,4.00287524 11.2580113,3.99538858 11.2212356,3.98790191 C10.5945571,3.86183082 9.96099379,3.76898523 9.32450453,3.70395507 L9.32341446,3.70012976 C9.30138346,3.69892752 9.24515852,3.69570334 9.20310456,3.6916048 C8.36391866,3.61138271 7.51968399,3.57935945 6.67556406,3.59012495 L6.67384289,3.58722865 C6.64968912,3.58826695 6.58663686,3.59083537 6.53936202,3.59170972 C5.59105384,3.61018047 4.64412259,3.68286125 3.70728889,3.80647321 C3.70728889,3.80647321 3.70487925,3.80559886 3.70183851,3.80395944 C3.67550459,3.80800333 3.6141735,3.81729336 3.56793136,3.82368708 C2.35771823,3.99216439 1.16385624,4.24632851 -5.68434189e-14,4.58765491 Z"/>
    <path id="lottbytts-c" d="M0.00527825958,4.58765491 C2.18669115,2.88971181 4.7307549,1.52817686 7.60826696,0.577370257 C8.88136022,0.157187948 10.783427,-0.0778496522 12.7651839,0.0234116065 C12.8015007,0.0161981763 12.83776,0.00909404051 12.8740767,0.00204455191 C12.8740767,0.00204455191 12.900468,0.0025910239 12.9210647,0.00379326226 C13.7518742,0.0542326264 14.5782661,0.161723666 15.3861267,0.337742292 L15.4090183,0.361131293 L15.4041416,0.370967788 C15.9251403,0.486491966 16.4343202,0.630596628 16.9211249,0.806615254 L16.9460819,0.80415613 C16.9460819,0.80415613 16.9733911,0.800768004 16.9869884,0.800986593 C16.9869884,0.800986593 17.0491227,0.823228002 17.092611,0.839731456 C17.5677117,1.0213241 18.0263466,1.23406564 18.4650732,1.49347589 C18.4718431,1.49746514 18.5065534,1.52795827 18.497087,1.54615579 C19.0751712,1.89387591 19.588195,2.30804703 20.0090215,2.79571863 C18.2035699,2.01136739 15.7513593,2.69593284 13.3564064,4.57945783 C12.705574,4.33999381 12.0308748,4.15763611 11.346709,4.01418721 C11.346709,4.01418721 11.3419471,4.0114002 11.3385622,4.00680984 C11.3115971,4.00287524 11.2632896,3.99538858 11.2265139,3.98790191 C10.5998353,3.86183082 9.96627205,3.76898523 9.32978279,3.70395507 L9.32869272,3.70012976 C9.30666172,3.69892752 9.25043678,3.69570334 9.20838282,3.6916048 C8.36919692,3.61138271 7.52496225,3.57935945 6.68084232,3.59012495 L6.67912115,3.58722865 C6.65496738,3.58826695 6.59191512,3.59083537 6.54464028,3.59170972 C5.5963321,3.61018047 4.64940085,3.68286125 3.71256715,3.80647321 C3.71256715,3.80647321 3.71015751,3.80559886 3.70711677,3.80395944 C3.68078285,3.80800333 3.61945176,3.81729336 3.57320962,3.82368708 C2.36299649,3.99216439 1.1691345,4.24632851 0.00527825958,4.58765491 Z"/>
    <path id="lottbytts-e" d="M0.0161790131,4.58765491 C2.1975919,2.88971181 4.74165565,1.52817686 7.61916771,0.577370257 C8.89226097,0.157187948 10.7943277,-0.0778496522 12.7760847,0.0234116065 C12.8124014,0.0161981763 12.8486608,0.00909404051 12.8849775,0.00204455191 C12.8849775,0.00204455191 12.9113688,0.0025910239 12.9319655,0.00379326226 C13.762775,0.0542326264 14.5891669,0.161723666 15.3970274,0.337742292 L15.419919,0.361131293 L15.4150424,0.370967788 C15.936041,0.486491966 16.4452209,0.630596628 16.9320256,0.806615254 L16.9569826,0.80415613 C16.9569826,0.80415613 16.9842919,0.800768004 16.9978891,0.800986593 C16.9978891,0.800986593 17.0600234,0.823228002 17.1035117,0.839731456 C17.5786124,1.0213241 18.0372473,1.23406564 18.4759739,1.49347589 C18.4827439,1.49746514 18.5174542,1.52795827 18.5079877,1.54615579 C19.0860719,1.89387591 19.5990958,2.30804703 20.0199222,2.79571863 C18.2144706,2.01136739 15.7622601,2.69593284 13.3673071,4.57945783 C12.7164748,4.33999381 12.0417755,4.15763611 11.3576098,4.01418721 C11.3576098,4.01418721 11.3528479,4.0114002 11.3494629,4.00680984 C11.3224979,4.00287524 11.2741904,3.99538858 11.2374147,3.98790191 C10.6107361,3.86183082 9.97717281,3.76898523 9.34068355,3.70395507 L9.33959347,3.70012976 C9.31756247,3.69892752 9.26133754,3.69570334 9.21928358,3.6916048 C8.38009767,3.61138271 7.535863,3.57935945 6.69174308,3.59012495 L6.6900219,3.58722865 C6.66586813,3.58826695 6.60281588,3.59083537 6.55554103,3.59170972 C5.60723285,3.61018047 4.66030161,3.68286125 3.7234679,3.80647321 C3.7234679,3.80647321 3.72105826,3.80559886 3.71801753,3.80395944 C3.6916836,3.80800333 3.63035252,3.81729336 3.58411037,3.82368708 C2.37389725,3.99216439 1.18003525,4.24632851 0.0161790131,4.58765491 Z"/>
    <path id="lottbytts-g" d="M0.0303888651,4.58765491 C2.21180176,2.88971181 4.7558655,1.52817686 7.63337756,0.577370257 C8.90647082,0.157187948 10.8085376,-0.0778496522 12.7902945,0.0234116065 C12.8266113,0.0161981763 12.8628706,0.00909404051 12.8991873,0.00204455191 C12.8991873,0.00204455191 12.9255786,0.0025910239 12.9461753,0.00379326226 C13.7769849,0.0542326264 14.6033767,0.161723666 15.4112373,0.337742292 L15.4341289,0.361131293 L15.4292522,0.370967788 C15.9502509,0.486491966 16.4594308,0.630596628 16.9462355,0.806615254 L16.9711925,0.80415613 C16.9711925,0.80415613 16.9985017,0.800768004 17.012099,0.800986593 C17.012099,0.800986593 17.0742333,0.823228002 17.1177216,0.839731456 C17.5928223,1.0213241 18.0514572,1.23406564 18.4901838,1.49347589 C18.4969537,1.49746514 18.531664,1.52795827 18.5221976,1.54615579 C19.1002818,1.89387591 19.6133056,2.30804703 20.0341321,2.79571863 C18.2286805,2.01136739 15.7764699,2.69593284 13.381517,4.57945783 C12.7306846,4.33999381 12.0559854,4.15763611 11.3718197,4.01418721 C11.3718197,4.01418721 11.3670577,4.0114002 11.3636728,4.00680984 C11.3367078,4.00287524 11.2884002,3.99538858 11.2516245,3.98790191 C10.6249459,3.86183082 9.99138266,3.76898523 9.3548934,3.70395507 L9.35380332,3.70012976 C9.33177233,3.69892752 9.27554739,3.69570334 9.23349343,3.6916048 C8.39430753,3.61138271 7.55007286,3.57935945 6.70595293,3.59012495 L6.70423176,3.58722865 C6.68007798,3.58826695 6.61702573,3.59083537 6.56975088,3.59170972 C5.6214427,3.61018047 4.67451146,3.68286125 3.73767775,3.80647321 C3.73767775,3.80647321 3.73526811,3.80559886 3.73222738,3.80395944 C3.70589345,3.80800333 3.64456237,3.81729336 3.59832023,3.82368708 C2.3881071,3.99216439 1.1942451,4.24632851 0.0303888651,4.58765491 Z"/>
    <path id="lottbytts-i" d="M0.0364314656,4.58765491 C2.21784436,2.88971181 4.7619081,1.52817686 7.63942016,0.577370257 C8.91251342,0.157187948 10.8145802,-0.0778496522 12.7963371,0.0234116065 C12.8326539,0.0161981763 12.8689132,0.00909404051 12.9052299,0.00204455191 C12.9052299,0.00204455191 12.9316212,0.0025910239 12.9522179,0.00379326226 C13.7830275,0.0542326264 14.6094193,0.161723666 15.4172799,0.337742292 L15.4401715,0.361131293 L15.4352948,0.370967788 C15.9562935,0.486491966 16.4654734,0.630596628 16.9522781,0.806615254 L16.9772351,0.80415613 C16.9772351,0.80415613 17.0045443,0.800768004 17.0181416,0.800986593 C17.0181416,0.800986593 17.0802759,0.823228002 17.1237642,0.839731456 C17.5988649,1.0213241 18.0574998,1.23406564 18.4962264,1.49347589 C18.5029963,1.49746514 18.5377066,1.52795827 18.5282402,1.54615579 C19.1063244,1.89387591 19.6193482,2.30804703 20.0401747,2.79571863 C18.2347231,2.01136739 15.7825125,2.69593284 13.3875596,4.57945783 C12.7367272,4.33999381 12.062028,4.15763611 11.3778623,4.01418721 C11.3778623,4.01418721 11.3731003,4.0114002 11.3697154,4.00680984 C11.3427504,4.00287524 11.2944428,3.99538858 11.2576671,3.98790191 C10.6309885,3.86183082 9.99742526,3.76898523 9.360936,3.70395507 L9.35984592,3.70012976 C9.33781493,3.69892752 9.28158999,3.69570334 9.23953603,3.6916048 C8.40035013,3.61138271 7.55611546,3.57935945 6.71199553,3.59012495 L6.71027436,3.58722865 C6.68612058,3.58826695 6.62306833,3.59083537 6.57579348,3.59170972 C5.6274853,3.61018047 4.68055406,3.68286125 3.74372035,3.80647321 C3.74372035,3.80647321 3.74131071,3.80559886 3.73826998,3.80395944 C3.71193605,3.80800333 3.65060497,3.81729336 3.60436283,3.82368708 C2.3941497,3.99216439 1.2002877,4.24632851 0.0364314656,4.58765491 Z"/>
  </defs>
  <g fill="none" fill-rule="evenodd">
    <g transform="translate(.126 .013)">
      <path fill="#8D53A0" d="M24.3194174,0.034700971 C43.0183404,0.813751431 49.1893717,14.5429857 49.5829463,22.2526671 C49.5921259,22.4566104 49.512952,22.6548705 49.3649312,22.8018714 C49.2169105,22.9488177 49.0120911,23.036412 48.7980921,23.036412 L46.7837476,23.036412 L46.7837476,23.036412 C45.8709529,10.710564 36.9488009,0.968894828 24.3194174,0.034700971 Z M10.1541177,13.5492264 C9.72003128,13.7963007 9.33626776,14.094097 9.0039792,14.4308608 C9.12788788,14.1311366 9.25496233,13.8373878 9.38642769,13.5490931 Z M23.4380054,2.51114806 C24.0267608,2.86203772 24.5489069,3.28134568 24.9761017,3.77639465 C22.7064682,2.79035672 19.4147347,4.12578113 16.4994508,7.24609555 C15.5709423,7.12898902 14.5866976,7.35971588 13.8649637,7.92351589 C13.6403508,8.09893339 13.4296794,8.32194861 13.4296794,8.32194861 C13.3258893,8.15858326 13.2020154,8.01271421 13.0624517,7.88470428 C16.3559717,4.20906434 20.3738484,2.3737736 23.4380054,2.51114806 Z"/>
      <path fill="#ED1C24" d="M8.94885006,4.58835352 L8.87784031,4.63555017 C8.47417432,4.59349085 8.05701761,4.68014687 7.73644535,4.93240148 C7.49295694,5.12399456 7.43374863,5.51647074 7.43374863,5.51647074 C7.43374863,5.51647074 7.43373048,5.54032883 7.43369834,5.58256593 L7.43307445,5.68042273 C7.16339148,5.8919832 6.8989638,6.10925379 6.639905,6.33208932 C6.01552581,5.8940309 4.97006298,5.95583916 4.48939775,6.5714349 C4.22037862,6.91593084 4.20580604,7.39627972 4.20580604,7.39627972 C3.63856525,7.58262666 3.36317779,8.11374278 3.36581692,8.66087053 C3.3700285,8.94868996 3.48071909,9.2202966 3.66487189,9.43004793 C3.45989102,9.6862832 3.26142684,9.94788301 3.06847775,10.2139408 C2.60893491,10.0920425 2.10372998,10.0647116 1.6160165,10.0677627 C1.19494588,10.0722633 0.770075027,10.1489571 0.395885168,10.325999 L0.262544522,10.5120444 C2.66086647,7.09577252 5.9843321,4.33402544 10.1247673,2.50119792 C10.3826213,2.37444608 11.4898442,1.85153499 13.293879,1.31595918 C25.4984773,-1.84390577 37.2446129,8.09860551 38.2236153,23.0325919 L38.2198288,23.0364035 L36.2013534,23.0364035 C35.7387599,23.0364035 35.3529306,22.6959105 35.3128847,22.2566563 C34.1092803,9.43763117 25.843533,1.29430402 16.1537965,1.3964555 C13.5050303,2.091899 11.0879792,3.17575577 8.94885006,4.58835352 Z"/>
      <path fill="#50B748" d="M21.408113,0.0215856434 C33.6740998,0.293182219 43.0426663,10.3506575 43.9495516,23.0364035 L41.0640648,23.0364035 C40.1106505,9.77407495 29.9812114,-0.304220954 18.3989313,0.260175312 C19.3367403,0.143722132 20.3419046,0.0590736215 21.408113,0.0215856434 Z M4.77872669,12.9504024 C5.20219228,13.3917878 5.81917493,13.6089011 6.42703536,13.6337656 C6.51461891,13.6373586 6.60261522,13.6378671 6.69051205,13.6349202 C5.93176724,15.2163994 5.31953455,16.9339346 4.88864079,18.7699965 L4.77872669,18.7702197 Z M20.3465517,1.34617909 C20.898302,1.46749587 21.4369139,1.62072661 21.9499952,1.80986056 C18.1862112,2.16796119 14.3483514,4.07916605 11.2063743,7.21409887 C10.955642,7.21572024 10.7040145,7.24745537 10.4618632,7.31288809 C10.4618632,7.31288809 10.4412091,7.3184621 10.4150473,7.32622201 L10.4150473,7.32622201 L10.4150473,6.46684016 C10.4137375,6.15590003 10.3658752,5.8399804 10.2411636,5.55824219 C13.1404897,3.30459224 16.5893078,1.82997287 20.3465517,1.34617909 Z"/>
      <path fill="#FD0" d="M19.3460347,0.20897951 C22.2011141,0.214599548 25.049022,0.881513957 27.6088632,2.08932634 C31.424758,3.88973294 34.5856323,6.82876856 36.845588,10.2711595 C39.2036504,13.8629559 40.5980289,18.0075088 41.0236747,22.2184579 C41.0497217,22.4761195 41.0719822,22.7340542 41.0910872,22.9922076 L41.0946644,23.0364035 L38.1953881,23.0364035 L38.1936669,23.0324826 C37.8829955,18.3496002 36.4860352,13.7541534 33.8535033,9.83900948 C31.9186195,6.96156125 29.3042746,4.4736929 26.1809792,2.83755578 C23.8353666,1.60881352 21.1960647,0.874136586 18.5246342,0.770908028 C16.768236,0.703036207 15.0040351,0.904465781 13.3016816,1.34344673 C13.3016816,1.34344673 13.2904366,1.3467802 13.279249,1.34076901 C13.2723643,1.33710765 13.2663976,1.33147899 13.263529,1.32497597 C14.6914129,0.899383591 16.5601463,0.464337245 18.7904405,0.213889135 C18.9754091,0.20897951 19.161353,0.20897951 19.3460347,0.20897951 Z M3.64730772,9.40958957 C3.78404852,9.57247791 3.96409287,9.70027909 4.17281691,9.77277708 C4.17281691,9.77277708 4.17448071,9.77335391 4.17743858,9.77435173 L4.2077567,9.7841437 L4.2077567,10.8763226 C3.89829174,10.5250288 3.48990321,10.3215637 3.04016583,10.2065784 C3.21608449,9.96212205 3.39941014,9.72042502 3.58785586,9.48213025 Z M7.43307425,5.65288666 L7.43318858,6.25245472 L7.4323717,7.32594877 C7.34321501,7.31873534 7.25365671,7.31873534 7.16409842,7.31873534 C7.15182073,7.1497662 7.11762678,6.98178072 7.05032897,6.82521649 C6.95991508,6.61483309 6.80949448,6.44609692 6.62383388,6.32035527 C6.88726051,6.09187592 7.15756551,5.86938446 7.43307425,5.65288666 Z M17.888145,0.984469279 C18.718266,1.03490864 19.5447726,1.14229039 20.3532069,1.31841831 L20.3760985,1.34180731 L20.3617554,1.37066103 C20.3617554,1.37066103 20.2777622,1.38383101 20.217636,1.39191879 C16.8351322,1.8530865 13.5510794,3.17527546 10.8062696,5.16875061 C10.6191703,5.30463471 10.4345823,5.4434884 10.252535,5.58520535 C10.2066566,5.4755731 10.148234,5.36945624 10.0763781,5.27072229 C9.81298815,4.90876155 9.33383438,4.67341546 8.83970938,4.63196426 C9.48476001,4.19774681 10.1541585,3.79613735 10.8439633,3.42971282 C13.0226223,2.2724491 15.3933067,1.4581512 17.841157,0.982720569 C17.841157,0.982720569 17.8675483,0.983267041 17.888145,0.984469279 Z"/>
      <path fill="#0099D9" d="M22.6348494,0 C23.4736337,0 24.2887805,0.0251377113 25.0808063,0.0739376594 C28.1808085,0.397121191 31.2932605,1.30005685 34.0741001,2.7805041 C37.3913715,4.54664691 40.2266001,7.10807039 42.3288391,10.1275467 C44.775714,13.6417987 46.2381362,17.7670064 46.7126058,21.9529818 C46.7521927,22.2995544 46.7843213,22.646728 46.8107126,22.9943935 L46.8135737,23.0364035 L43.919718,23.0364035 L43.919718,23.0364035 C43.620062,18.8844187 42.404169,14.8418512 40.2678508,11.276504 C37.6935518,6.9801413 33.7372094,3.41605102 28.9406484,1.54329153 C26.5694477,0.617513342 24.0206794,0.113939409 21.4432249,0.0508765417 L21.3946305,0.0470512378 C21.3864454,0.0306935098 21.3823528,0.0225146457 21.3823528,0.0225146457 C21.7909589,0.00775990217 22.2085725,0 22.6348494,0 Z M7.94292857,13.2828759 C8.25692764,13.509935 8.64172424,13.5512483 9.02457017,13.5499914 L9.02457017,13.5499914 L9.41965511,13.5497833 C9.29548006,13.821956 9.17631394,14.0965158 9.06211462,14.3732662 C7.88889161,15.5253102 7.33424424,17.1545231 7.4460837,18.7702197 L7.4460837,18.7702197 L4.85879591,18.7699735 C5.27445899,17.0046007 5.8725628,15.2776493 6.65349619,13.6353783 C6.99498335,13.6282679 7.33623113,13.5691772 7.6470018,13.4369264 C7.7884821,13.3767052 7.94292857,13.2828759 7.94292857,13.2828759 Z M21.9540113,1.78155332 C21.9540113,1.78155332 22.0162029,1.80390402 22.0596912,1.82040747 C22.5277351,1.9993224 22.9831571,2.21058847 23.4104093,2.46130982 C23.4116141,2.46202023 23.4526354,2.48617429 23.4537828,2.486994 C23.5224576,2.53475565 23.4366285,2.5395646 23.4366285,2.5395646 C21.8647972,2.4722939 20.3144806,2.89646546 18.8900963,3.53660274 C16.6463383,4.54507996 14.7003872,6.09864786 13.0828161,7.90471204 C12.6087359,7.45731352 11.9446542,7.22170655 11.2713302,7.21266513 C11.2336553,7.21236243 11.1959374,7.21270212 11.1582123,7.21370091 C11.906884,6.46689532 12.7170051,5.76930884 13.5875108,5.13016969 C15.9090845,3.42555963 18.6234868,2.19539655 21.5117275,1.82980679 C21.6565354,1.81149998 21.8016302,1.79559765 21.9470118,1.78155332 L21.9540113,1.78155332 Z"/>
    </g>
    <g transform="translate(5.062 .993)">
      <g transform="translate(.036)">
        <mask id="lottbytts-b" fill="#fff">
          <use xlink:href="#lottbytts-a"/>
        </mask>
        <path fill="#7A4A94" d="M3.43104085,15.0821029 C6.42702688,6.00465677 13.6326544,1.3137959 18.4656469,1.53047204 C19.0544024,1.88136171 19.5765484,2.30066966 20.0037432,2.79571863 C16.597602,1.31592714 10.8894511,5.06461566 7.60643104,12.228153 C5.59610261,12.4615511 4.10246989,13.5081543 3.43104085,15.0821029 Z" mask="url(#lottbytts-b)"/>
      </g>
      <g transform="translate(.031)">
        <mask id="lottbytts-d" fill="#fff">
          <use xlink:href="#lottbytts-c"/>
        </mask>
        <path fill="#CC1B2A" d="M12.8650693,0.0288216791 L12.8800435,0.0299146231 C9.53160899,0.677723345 6.51361024,1.92201222 3.91037684,3.65501337 C3.50709409,3.61281484 3.08993738,3.69947086 2.76936511,3.95172546 C2.5258767,4.14331854 2.4666684,4.53579472 2.4666684,4.53579472 C2.4666684,4.53579472 2.4666247,4.59322303 2.46655287,4.68761792 L2.46676021,4.69914583 C2.19701206,4.91073881 1.93252124,5.12804439 1.67340142,5.3509173 C1.04844557,4.91335488 0.0029827405,4.97516315 -0.477682492,5.59075889 C-0.746701614,5.93525482 -0.7612742,6.4156037 -0.7612742,6.4156037 C-1.32851499,6.60195064 -1.60390244,7.13306677 -1.60126331,7.68019452 C-1.59705173,7.96801395 -1.48636115,8.23962058 -1.30220834,8.44937192 C-1.50736306,8.70582634 -1.70599186,8.96765314 -1.89909606,9.23394544 C-2.3586418,9.11133959 -2.8635899,9.08403706 -3.35106374,9.08708664 C-3.84188451,9.09233277 -4.33786879,9.19567062 -4.75272852,9.44169231 L-4.70453572,9.53136836 C-1.85002998,5.46528892 2.31503318,2.32640849 7.60826696,0.577370257 C8.90276012,0.15013846 10.8474545,-0.0857188487 12.8650693,0.0288216791 Z" mask="url(#lottbytts-d)"/>
      </g>
      <g transform="translate(.02)">
        <mask id="lottbytts-f" fill="#fff">
          <use xlink:href="#lottbytts-e"/>
        </mask>
        <path fill="#479F49" d="M-1.09007535,12.5000228 C2.16523388,5.82645225 8.21543892,1.2893686 15.3903722,0.365503069 C15.9421225,0.486819849 16.4807345,0.640050593 16.9938157,0.829184547 C9.58566364,1.53402411 1.89053489,8.25573881 -0.22042471,18.4827434 L-0.978830291,18.4827434 C-1.06006959,18.3889688 -1.09007535,18.2800569 -1.09007535,18.1067707 L-1.09007535,12.5000228 Z" mask="url(#lottbytts-f)"/>
      </g>
      <g transform="translate(.006)">
        <mask id="lottbytts-h" fill="#fff">
          <use xlink:href="#lottbytts-g"/>
        </mask>
        <path fill="#DCC00C" d="M-1.29548678,8.4279299 C-1.15864552,8.59128738 -0.978296734,8.7194572 -0.769152717,8.79210106 C-0.769152717,8.79210106 -0.754178524,8.79729255 -0.734212933,8.80346768 L-0.734212933,8.80346768 L-0.734212933,9.89564659 C-1.0439078,9.54409175 -1.45267329,9.3405854 -1.90280626,9.2256462 C-1.72580672,8.98134264 -1.54251919,8.73969803 -1.35411377,8.50145424 Z M2.49110462,4.67221064 L2.49121895,5.27177871 L2.49040207,6.34527275 C2.40124538,6.33805932 2.31168708,6.33805932 2.22212878,6.33805932 C2.20985109,6.16909019 2.17565715,6.0011047 2.10835934,5.84454047 C2.01794545,5.63415708 1.86752485,5.46542091 1.68186425,5.33967926 C1.94529087,5.1111999 2.21559588,4.88870845 2.49110462,4.67221064 Z M12.9461753,0.00379326226 C13.7762964,0.0542326264 14.602803,0.161614371 15.4112373,0.337742292 L15.4341289,0.361131293 L15.4197858,0.389985013 C15.4197858,0.389985013 15.3357926,0.403154988 15.2756663,0.411242774 C11.8931625,0.872410481 8.60910974,2.19459945 5.86430001,4.1880746 C5.67720067,4.3239587 5.49261272,4.46281238 5.31056532,4.60452933 C5.26434827,4.49428217 5.20605618,4.38849413 5.13440851,4.29004627 C4.87101852,3.92808553 4.39186474,3.69273945 3.89773975,3.65128824 C4.54279038,3.21707079 5.21218886,2.81546134 5.90199367,2.4490368 C8.08065269,1.29177308 10.4513371,0.477475178 12.8991873,0.00204455191 L12.9248392,0.00280556475 C12.9318004,0.00306463295 12.9393098,0.00339251614 12.9461753,0.00379326226 Z" mask="url(#lottbytts-h)"/>
      </g>
      <mask id="lottbytts-j" fill="#fff">
        <use xlink:href="#lottbytts-i"/>
      </mask>
      <path fill="#0386C4" d="M2.2229505,18.5112146 L-0.200172257,18.5112146 L-0.229202685,18.4896836 L-0.229489547,18.477224 C0.927596749,12.903647 3.88393847,7.64997462 8.65158381,4.14949367 C10.9731574,2.44488361 13.6875598,1.21472053 16.5758005,0.849130774 C16.7206084,0.830823963 16.8657032,0.814921628 17.0110848,0.800877298 C17.0134371,0.800877298 17.0157893,0.800877298 17.0180842,0.800877298 C17.0180842,0.800877298 17.0802759,0.823228002 17.1237642,0.839731456 C17.5918081,1.01864638 18.0472301,1.22991245 18.4744823,1.4806338 C18.4756871,1.48134421 18.5167083,1.50549827 18.5178558,1.50631798 C18.5865305,1.55407963 18.5007014,1.55888859 18.5007014,1.55888859 C16.9288702,1.49161789 15.3785535,1.91578944 13.9541693,2.55592672 C11.6635194,3.58547994 9.68325407,5.18314543 8.04590352,7.03759811 C5.97407189,9.38409416 4.47292339,12.1416464 3.49564215,15.0917208 C3.36925079,15.3894387 3.27498795,15.6984686 3.21050139,16.0137283 C2.98250353,16.8049105 2.7899618,17.6128147 2.63402365,18.4250906 C2.63402365,18.4250906 2.5763644,18.4590812 2.51870515,18.4721418 C2.42168845,18.49411 2.32254896,18.5062417 2.2229505,18.5112146 Z" mask="url(#lottbytts-j)"/>
    </g>
    <g transform="translate(10.207 .013)">
      <path fill="#A475B3" d="M26.979996,4.71042456 C23.453258,2.07451695 19.122905,0.396028247 14.2378757,0.034700971 C21.4282422,0.334276913 26.7661691,2.54874533 30.6354776,5.59947983 L30.6716796,5.62811496 L30.6745482,5.63041015 C29.5417304,5.19678463 28.3025442,4.88589671 26.979996,4.71042456 Z"/>
      <path fill="#73C56D" d="M21.6716733,4.70747361 C17.8729902,1.69247838 13.2255973,0.0209845242 8.31738966,0.260175312 C9.25519869,0.143722132 10.2603629,0.0590736215 11.3265713,0.0215856434 C16.2074124,0.129623155 20.6294465,1.7866355 24.2421283,4.5420019 L24.2409809,4.54205654 L24.2409809,4.54205654 C23.4068437,4.54713873 22.5489544,4.60118481 21.6716733,4.70747361 Z"/>
      <path fill="#F14950" d="M17.3919227,5.60434343 C12.6764289,1.55039567 6.39329192,0.215692492 0,2.5231158 C0.0965003546,2.47393332 1.23648968,1.90254221 3.21233731,1.31595918 C9.14710911,-0.22061074 14.9734471,1.34104225 19.5060952,5.06830906 L19.5027102,5.06896483 C18.8072995,5.2148182 18.1031682,5.39307736 17.3919801,5.60439808 L17.3919227,5.60434343 Z"/>
      <path fill="#FFE433" d="M19.4669098,5.07656079 C18.4261747,4.22176931 17.3004137,3.46670897 16.0994376,2.83755578 C13.7538249,1.60881352 11.114523,0.874136586 8.44309256,0.770908028 C6.68669431,0.703036207 4.92249341,0.904465781 3.22013995,1.34344673 C3.22013995,1.34344673 2.80988079,1.44229428 2.83193102,1.43200957 C2.85398125,1.42172487 3.15258288,1.3342167 3.18198732,1.32497597 C4.60987128,0.899383591 6.47860466,0.464337245 8.70889882,0.213889135 C8.8938674,0.208752298 9.0798113,0.209035096 9.26449302,0.209035096 C12.1195725,0.214599548 14.9674804,0.881513957 17.5273215,2.08932634 C19.0278389,2.79728079 20.4270941,3.68136317 21.7101128,4.7028286 L21.6686899,4.7078015 L21.6694357,4.70840261 C20.9587066,4.79381619 20.7592802,4.80551069 19.5027102,5.06896483 L19.4669098,5.07656079 Z"/>
      <path fill="#33ADE1" d="M24.1789039,4.54254837 C22.5633549,3.31293176 20.7784999,2.29266856 18.8591067,1.54329153 C16.487906,0.617513342 13.9391377,0.113939409 11.3616832,0.0508765417 L11.3130888,0.0470512378 L11.3008111,0.0225146457 C11.7094173,0.00775990217 12.1270309,7.10542736e-15 12.5533077,7.10542736e-15 C13.392092,7.10542736e-15 14.2072389,0.0251377113 14.9992647,0.0739376594 C18.0992669,0.397121191 21.2117188,1.30005685 23.9925584,2.7805041 C25.0580784,3.34779667 26.0738565,3.99711468 27.0315738,4.71736476 C26.5444248,4.65129629 26.0459735,4.60369858 25.5372526,4.57506345 L25.5361625,4.5740798 C25.1115495,4.54998039 24.6795928,4.53910559 24.2409809,4.54205654 L24.2409809,4.54205654 L24.1789039,4.54254837 Z"/>
    </g>
    <path fill="#111C4E" d="M25.320177,11.041415 L25.320177,14.4460447 C25.320177,14.5639734 25.3247668,14.6773117 25.3311925,14.7888466 C25.2980313,14.7511947 25.2494369,14.7210294 25.1896548,14.6887876 C24.9814505,14.5749575 24.7217257,14.5917341 24.5315362,14.7313031 C24.3253972,14.8832223 24.1266019,14.9739366 23.787359,14.9739366 C23.2329696,14.9739366 22.9845472,14.6644696 22.9845472,14.0635143 L22.9845472,11.041415 L25.320177,11.041415 Z M13.6148332,15.0103317 C12.3915392,15.0103317 11.5506895,14.1546658 11.5506895,12.9347764 C11.5506895,11.7333031 12.4108163,10.8774734 13.6148332,10.8774734 C14.8190222,10.8774734 15.6793211,11.7333031 15.6793211,12.9530286 C15.6793211,14.1364683 14.8002041,15.0103317 13.6148332,15.0103317 L13.6148332,15.0103317 Z M2.29572025,5.56128461 C3.38522188,5.56128461 3.95877363,6.12562622 3.95877363,7.25436411 L3.95877363,7.25436411 L3.95877363,13.7118596 C3.95877363,13.9081523 3.9972705,14.0218185 4.10513059,14.1245006 C4.2162609,14.2303522 4.33221049,14.2639056 4.53834948,14.2639056 L4.53834948,14.2639056 L7.61729599,14.2639056 C7.87725027,14.25161 8.45533444,14.1645023 8.47885712,13.640545 C8.45091677,13.4127208 8.43502462,13.1779018 8.43502462,12.9347764 C8.43502462,10.1127951 10.5183881,8.21937898 13.6532153,8.21937898 C15.4388161,8.21937898 16.8735848,8.84989836 17.7694546,9.92759576 C17.7684219,9.90431605 17.7664138,9.88180141 17.7664138,9.85792058 L17.7664138,9.85792058 L17.7664138,9.65774789 C17.7664138,8.8383678 18.2633161,8.4015181 19.2573501,8.4015181 L19.2573501,8.4015181 L19.4675625,8.4015181 L19.4675625,7.5274908 C19.4675625,6.41695044 20.0601619,5.83430201 21.1113961,5.83430201 L21.1113961,5.83430201 L21.4173057,5.83430201 C22.3919478,5.83430201 23.0609098,6.23481133 23.0609098,7.5274908 L23.0609098,7.5274908 L23.0609098,8.4015181 L25.320177,8.4015181 L25.320177,7.5274908 C25.320177,6.41695044 25.912719,5.83430201 26.9639533,5.83430201 L26.9639533,5.83430201 L27.2699202,5.83430201 C28.2444476,5.83430201 28.9135817,6.23481133 28.9135817,7.5274908 L28.9135817,7.5274908 L28.9135817,8.4015181 L30.0031407,8.4015181 C30.9778976,8.4015181 31.4367619,8.80191812 31.4367619,9.6029914 L31.4367619,9.6029914 L31.4367619,9.78518516 C31.4367619,10.6043467 30.9396302,11.041415 29.9649881,11.041415 L29.9649881,11.041415 L28.8371617,11.041415 L28.8371617,14.0635143 C28.8371617,14.6644696 29.0855268,14.9739366 29.6399161,14.9739366 C29.9267781,14.9739366 30.1126646,14.8982503 30.2874783,14.7619055 C30.4295323,14.6520646 30.6139845,14.6050681 30.7946502,14.6326649 C30.9753158,14.6602071 31.1350979,14.7597743 31.2340079,14.9063927 C31.3778979,15.1168937 31.4939622,15.3850475 31.4939622,15.7022745 C31.4939622,16.8674621 30.3852982,17.6866782 28.6459395,17.6866782 C27.0519625,17.6866782 26.0525929,17.1383482 25.6019328,16.0599404 C25.3964823,17.0310758 24.3483462,17.6866782 22.793325,17.6866782 C20.5378444,17.6866782 19.4675625,16.5943354 19.4675625,14.4460447 L19.4675625,14.4460447 L19.4675625,11.041415 L19.2573501,11.041415 C18.894355,11.041415 18.5951006,10.983161 18.3622834,10.8707518 C18.6433508,11.4829097 18.7949286,12.1827217 18.7949286,12.9530286 C18.7949286,15.8297118 16.7305554,17.6866782 13.5957282,17.6866782 C11.7946942,17.6866782 10.3685314,17.080149 9.47570234,16.0214141 C9.40737183,16.9367001 8.83404957,17.431749 7.72418074,17.431749 L7.72418074,17.431749 L2.08550783,17.431749 C0.823889041,17.431749 0.116659629,16.758277 0.116659629,15.4291478 L0.116659629,15.4291478 L0.116659629,7.25436411 C0.116659629,6.12562622 0.690039262,5.56128461 1.74133088,5.56128461 L1.74133088,5.56128461 Z M5.84689888,1.42563928 C6.23238394,1.42563928 6.48596989,1.5802362 6.48596989,2.08266254 L6.48596989,2.68175978 L7.34827687,2.68175978 C7.75407176,2.68175978 7.92653315,2.84602926 7.92653315,3.16489566 L7.92653315,3.24222145 C7.92653315,3.5707604 7.74391684,3.74464779 7.32796704,3.74464779 L6.45556253,3.74464779 L6.45556253,5.7545171 C6.45556253,6.21830787 6.61786901,6.45023058 7.00335408,6.45023058 C7.38883914,6.45023058 7.49761719,6.24574077 7.64735912,6.21989264 C7.81396853,6.19114821 7.98740525,6.38377959 7.98740525,6.66280818 C7.98740525,7.13627151 7.49033089,7.52279115 6.67874111,7.52279115 C5.58310064,7.52279115 5.07587137,6.97200203 5.07587137,5.90911402 L5.07587137,3.74464779 L4.83244033,3.74464779 C4.42664544,3.74464779 4.23387422,3.58037831 4.23387422,3.27118446 L4.23387422,3.18424077 C4.23387422,2.85570181 4.42664544,2.68175978 4.83244033,2.68175978 L5.07587137,2.68175978 L5.07587137,2.08266254 C5.07587137,1.63821688 5.31935978,1.42563928 5.72515467,1.42563928 L5.84689888,1.42563928 Z M16.1131711,2.57547098 C17.5739868,2.57547098 18.5782905,3.5514153 18.5782905,4.93316971 L18.5782905,4.93316971 L18.5782905,5.02978595 C18.5681929,5.27138122 18.4971659,5.40663303 18.2334251,5.40663303 L18.2334251,5.40663303 L14.8248168,5.40663303 C14.9262512,6.11201907 15.4841977,6.52750172 16.2552252,6.52750172 C17.2401369,6.52750172 17.5011239,5.96878876 17.6941246,5.90889543 C17.8800685,5.85118799 18.3450144,5.97687655 18.3450144,6.45023058 C18.3450144,6.95265692 17.5841418,7.52279115 16.204508,7.52279115 C14.5914833,7.52279115 13.5263076,6.56619194 13.5263076,5.07809408 C13.5263076,3.63835899 14.6117931,2.57547098 16.1131711,2.57547098 Z M8.83955731,0.000822873591 C9.26560466,0.000822873591 9.73227165,0.213400475 9.73227165,1.09272854 L9.73227165,1.09272854 L9.73227165,3.42578139 C10.0467297,2.93297295 10.5641139,2.57547098 11.3249291,2.57547098 C12.6234383,2.57547098 13.1712873,3.4644716 13.1712873,4.56599518 L13.1712873,4.56599518 L13.1712873,6.78844209 C13.1712873,7.28119588 12.907489,7.43579281 12.5423138,7.43579281 L12.5423138,7.43579281 L12.3901048,7.43579281 C12.0046198,7.43579281 11.7408789,7.29086844 11.7408789,6.78844209 L11.7408789,6.78844209 L11.7408789,4.75922767 C11.7408789,4.10220441 11.3959561,3.71568477 10.8278548,3.71568477 C10.158319,3.71568477 9.73227165,4.14083998 9.73227165,4.81720835 L9.73227165,4.81720835 L9.73227165,6.78844209 C9.73227165,7.28119588 9.46847342,7.43579281 9.10329818,7.43579281 L9.10329818,7.43579281 L8.95114661,7.43579281 C8.56560417,7.43579281 8.30186331,7.29086844 8.30186331,6.78844209 L8.30186331,6.78844209 L8.30186331,0.155419798 C8.30186331,0.107111674 8.55550663,0.000822873591 8.83955731,0.000822873591 Z M16.0929187,3.52239763 C15.4233256,3.52239763 14.9160963,3.9765705 14.8248168,4.6143033 L17.2493739,4.6143033 C17.2189091,3.95722539 16.7827069,3.52239763 16.0929187,3.52239763 Z" transform="translate(.033 5.388)"/>
    <g transform="translate(58)">
      <g transform="translate(13.5 3)">
        <path fill="#0092CF" d="M50.8117603,9.54193548 C51.4447051,9.54193548 52.0776498,9.71612903 52.6844937,9.93548387 L53.0433799,8.08387097 C52.3190823,7.98709677 51.4773311,7.83225806 50.707357,7.83225806 C47.5165325,7.83225806 46.8379113,9.47741935 46.8379113,10.4903226 C46.8379113,12.3548387 49.2391862,13.083871 49.2391862,14.2516129 C49.2391862,14.8064516 48.7106448,15.0709677 48.3060821,15.0709677 C47.5034821,15.0709677 46.7922349,14.6322581 46.0548869,14.2967742 L45.6633747,16.2903226 L45.6633747,16.2967742 C46.700882,16.5677419 47.2620496,16.7741935 48.3126073,16.7741935 C51.4838563,16.7741935 52.2277295,15.0709677 52.2277295,13.9290323 C52.2277295,12.0645161 49.6437489,11.3354839 49.6437489,10.3225806 C49.6372237,9.69677419 50.3158448,9.54193548 50.8117603,9.54193548 Z M44.7628966,9.72903226 L46.2049666,9.72903226 L46.5442772,8.01935484 L45.1087324,8.01935484 L45.513295,5.92903226 L42.4529745,6.35483871 L42.1267143,8.01935484 L39.8755191,8.01935484 L40.2800817,5.92903226 L37.213236,6.35483871 L36.8869759,8.01935484 L35.9081953,8.01935484 L35.5688847,9.72903226 L36.5411401,9.72903226 L35.7842165,13.6645161 C35.705914,14.0451613 35.5949855,14.5806452 35.5949855,14.9612903 C35.5949855,16.116129 36.4171612,16.7806452 37.7939792,16.7806452 C38.6096296,16.7806452 39.3404524,16.4967742 40.0190736,16.3096774 L40.4105858,14.3032258 L40.4105858,14.3032258 C40.1169516,14.5096774 39.9146703,14.7741935 39.4448557,14.7741935 C38.9815662,14.7741935 38.7662345,14.5741935 38.7662345,14.0709677 C38.7662345,13.7419355 38.7988605,13.516129 38.8445369,13.2516129 L39.5296833,9.74193548 L41.7808785,9.74193548 L41.0239549,13.6774194 C40.9456525,14.0580645 40.8412492,14.5935484 40.8412492,14.9741935 C40.8412492,16.1290323 41.6634249,16.7935484 43.0402428,16.7935484 C43.8558933,16.7935484 44.5867161,16.5096774 45.2653373,16.3225806 L45.6568495,14.316129 L45.6568495,14.3096774 C45.3632153,14.516129 45.160934,14.7806452 44.6911193,14.7806452 C44.2278299,14.7806452 44.0124982,14.5806452 44.0124982,14.0774194 C44.0124982,13.7483871 44.0451242,13.5225806 44.0908006,13.2580645 L44.7628966,9.72903226 Z M26.2769948,7.05806452 L24.4042614,16.5870968 L21.4157182,16.5870968 L23.2884516,7.05806452 L19.8300937,7.05806452 L20.2020303,5.16129032 L29.7549283,5.16129032 L29.3829917,7.05806452 L26.2769948,7.05806452 Z M32.9261773,8.02580645 C27.8169429,8.02580645 25.8137054,11.0580645 25.6897265,14.2 C25.6440501,15.3870968 26.4923265,16.7806452 27.8365185,16.7806452 C29.4612942,16.7806452 30.9816666,14.8451613 31.3927544,14.2774194 L30.9229398,16.5935484 L33.780979,16.5935484 L35.4644815,8.03225806 L32.9261773,8.02580645 Z M32.4759382,9.8516129 C31.5297837,12.8516129 29.4417186,14.9677419 28.7304714,14.5741935 C27.8234681,14.0709677 28.9784291,10.3741935 31.0925951,9.76774194 C31.4123301,9.67741935 32.0583252,9.5483871 32.5281399,9.63225806 L32.4759382,9.8516129 Z M53.9699588,8.05806452 C54.3353702,8.05806452 54.6355296,8.34193548 54.6355296,8.70967742 C54.6355296,9.09032258 54.328845,9.36774194 53.9699588,9.36774194 C53.6045474,9.36774194 53.2978629,9.08387097 53.2978629,8.70967742 C53.2978629,8.34193548 53.6045474,8.05806452 53.9699588,8.05806452 Z M53.9699588,9.27741935 C54.2766434,9.27741935 54.5180759,9.03225806 54.5180759,8.71612903 C54.5180759,8.4 54.2831686,8.16129032 53.9699588,8.16129032 C53.6567491,8.16129032 53.4218417,8.40645161 53.4218417,8.71612903 C53.4218417,9.03225806 53.6567491,9.27741935 53.9699588,9.27741935 Z M53.7089507,8.32903226 L54.0091101,8.32903226 C54.1918158,8.32903226 54.2831686,8.4 54.2831686,8.5483871 C54.2831686,8.68387097 54.1918158,8.74193548 54.0808873,8.75483871 L54.3027442,9.09677419 L54.1722402,9.09677419 L53.9634336,8.76774194 L53.8329296,8.76774194 L53.8329296,9.09677419 L53.7154759,9.09677419 L53.7154759,8.32903226 L53.7089507,8.32903226 Z M53.8329296,8.67096774 L53.9569084,8.67096774 C54.0613117,8.67096774 54.1591897,8.66451613 54.1591897,8.54193548 C54.1591897,8.43870968 54.0678369,8.42580645 53.9895345,8.42580645 L53.8329296,8.42580645 L53.8329296,8.67096774 Z"/>
        <path fill="#1B3F94" d="M12.789399,11.6451613 C12.6001681,11.5935484 12.3587356,11.6258065 12.2804331,11.6322581 C12.2804331,11.6322581 12.2739079,11.6322581 12.2739079,11.6387097 C12.2739079,12.1612903 11.7584169,12.2451613 11.6279128,12.2451613 C11.2886022,12.2516129 11.216825,11.9548387 11.2102998,11.9032258 C11.2102998,11.9032258 11.2102998,11.9032258 11.2037746,11.9032258 C11.0406445,12 10.8514136,12.2193548 10.7861615,12.2580645 C10.7143843,12.2967742 10.4729518,12.1612903 10.4533761,12.0967742 C10.4403257,12.0451613 10.4664265,12.0064516 10.4925274,11.9741935 C10.7535355,11.6451613 10.9101404,11.4967742 11.1711485,11.3935484 C11.379955,11.3096774 11.7127404,11.3354839 12.1499291,11.083871 C12.2021307,11.0516129 12.2543323,11.0193548 12.2934836,10.9870968 C12.3326348,10.9548387 12.3326348,10.916129 12.2934836,10.9096774 C12.0585762,10.8774194 11.3538542,10.8064516 10.4468509,10.9354839 C10.3228721,10.9548387 9.72907854,11.0709677 9.55289805,11.1096774 C9.50722162,11.116129 9.4745956,11.116129 9.4615452,11.0774194 C9.45501999,11.0580645 9.4615452,11.0387097 9.4745956,11.0258065 C9.61815008,10.883871 10.479477,10.2774194 10.89709,10.1870968 C11.0863209,10.1483871 11.5169843,10.1032258 11.9411226,10.1032258 C12.3195844,10.1096774 12.6784706,10.1354839 12.8677015,10.2451613 C12.8938023,10.2580645 12.9525291,10.3096774 12.9982055,10.3870968 C13.0895584,10.5354839 13.2461633,10.8129032 13.3375161,11.0645161 C13.396243,11.2516129 13.4353942,11.4193548 13.3244657,11.5225806 C13.2853145,11.5677419 13.0308316,11.7096774 12.789399,11.6451613 L12.789399,11.6451613 Z M13.3440413,13.7548387 C13.4158186,13.7354839 13.4875958,13.7612903 13.5658983,13.8 C13.7616544,13.9032258 13.8203812,14.0064516 14.0030869,13.9483871 C14.3554479,13.8322581 14.5903552,13.6064516 14.9427162,13.4129032 C15.2820268,13.2258065 15.7583667,13.3483871 15.7583667,13.4193548 C15.7648919,13.516129 15.7257406,13.6967742 15.6017618,13.9225806 C15.4843081,14.1354839 15.3799048,14.3290323 15.1319471,14.4258065 C14.8839894,14.5225806 14.6556072,14.3225806 14.5055276,14.3741935 C14.5055276,14.3741935 14.3032463,14.4451613 14.231469,14.4709677 C13.9965617,14.5483871 13.6964023,14.6258065 13.5006462,14.3806452 C13.3048901,14.1419355 13.14176,13.8193548 13.3440413,13.7548387 Z M16.8415504,14.9225806 C16.8741765,14.9870968 16.9198529,15.0903226 16.9394285,15.1741935 C16.9720545,15.3225806 16.9720545,15.4451613 16.8546009,15.483871 C16.5935927,15.5806452 16.0063244,15.5806452 15.2689764,15.8516129 C14.3880739,16.1741935 13.6311503,16.6774194 13.3375161,16.9096774 C13.3179405,16.9225806 13.0830332,17.1548387 12.9264283,16.7870968 C12.8546511,16.6193548 12.9068527,16.5548387 13.0243064,16.4774194 C13.1482852,16.3935484 13.3375161,16.3741935 13.5463226,16.2193548 C13.7616544,16.0580645 13.9965617,15.7612903 14.5120528,15.4967742 C14.9231406,15.2903226 14.9753422,15.3548387 15.3016024,15.3419355 C15.5430349,15.3290323 15.6604886,15.0129032 15.9280219,15.0064516 C16.1368285,15 16.2347065,15.0903226 16.378261,15.0645161 C16.5022399,15.0451613 16.6849456,14.9354839 16.763248,14.8903226 C16.8023992,14.8774194 16.8285,14.8967742 16.8415504,14.9225806 Z M8.82860045,17.7032258 C8.81555004,17.716129 8.77639882,17.7032258 8.77639882,17.6967742 C8.33921018,17.483871 7.53008494,16.3483871 7.19729955,15.9225806 C6.96239222,15.6193548 6.68180847,15.283871 6.69485888,14.8967742 C6.70138408,14.6967742 6.7405353,14.4064516 6.81231254,14.1290323 C6.81883774,14.0967742 6.86451417,14.1290323 6.94281661,14.2645161 C7.00806865,14.3741935 7.15162313,14.5612903 7.12552231,14.8129032 C7.01459385,15.8 8.24133213,16.4 8.48928986,16.6709677 C8.66547036,16.8580645 8.75029801,17.0387097 8.78944923,17.2064516 C8.82860045,17.3741935 8.82860045,17.5290323 8.84165086,17.6516129 C8.84165086,17.6516129 8.84817606,17.6903226 8.82860045,17.7032258 Z M13.0895584,5.6 C10.6165062,6.41290323 6.57088001,6.86451613 3.94774817,7.63225806 C3.79114328,6.72903226 3.66716441,5.81290323 3.60843758,4.89677419 C3.53013514,3.67741935 3.47793351,2.81935484 4.38493681,1.93548387 C4.78949943,1.54193548 5.65735151,0.935483871 6.7340101,1.08387097 C8.07820204,1.26451613 8.90037769,0.309677419 9.67687691,0.619354839 C10.6295566,1 13.526747,4.87741935 13.8008056,5.36129032 L13.8008056,5.36129032 C13.559373,5.44516129 13.3244657,5.52258065 13.0895584,5.6 Z M18.6751327,3.96774194 C18.6164058,3.89032258 18.4075993,3.61935484 17.8464318,3.82580645 C17.755079,3.85806452 15.8888707,4.62580645 14.0422381,5.27741935 C13.8008056,4.87096774 11.5300347,1.27096774 10.1466916,0.225806452 C9.8269566,-0.0193548387 9.38324275,-0.0516129032 8.9199533,0.167741935 C8.75682321,0.24516129 7.79761828,0.670967742 6.96891743,0.535483871 C6.42732553,0.44516129 5.06355798,0.180645161 3.84987011,1.36774194 C3.12557252,2.07096774 2.87761478,2.87096774 2.85151397,3.80645161 C2.80583754,5.35483871 3.15819853,7.2 3.29522781,7.84516129 C3.00811885,7.9483871 2.74711071,8.0516129 2.51220338,8.16774194 C1.41596918,8.70322581 0.378461808,9.61290323 0.104403257,10.8580645 C-0.110928461,11.8387097 0.489390269,14.0645161 2.0097627,14.8064516 C3.40615627,15.4903226 4.78297423,14.9677419 4.82212545,14.9483871 C4.84822626,15.0322581 4.9200035,15.6322581 5.4550702,15.9096774 C5.74870436,16.0645161 6.41427512,16.1935484 6.59045562,16.4967742 C6.83841336,16.9290323 7.4648329,17.8580645 7.90854674,17.9741935 C7.71931584,17.6387097 6.78621173,16.3677419 6.78621173,16.3677419 C6.33597268,15.6903226 5.91835965,15.5870968 5.52684744,15.4129032 C4.95262952,15.1548387 4.81560024,13.7290323 5.37676775,13.7225806 C5.50727182,13.7225806 5.67040191,13.9483871 5.79438078,14.0645161 C5.833532,14.1032258 5.89225884,14.0967742 5.87268323,13.9935484 C5.85310761,13.883871 5.81395639,13.6903226 5.71607834,13.5548387 C5.58557427,13.3806452 5.44201979,13.1935484 5.10923441,13.316129 C4.76339862,13.4451613 4.65899536,14.0064516 4.67857097,14.2129032 C3.8302945,14.6193548 0.913528502,14.5741935 0.502440676,12.4903226 C-0.287108958,8.47741935 7.07984589,7.4516129 8.30658416,7.21290323 C12.9199031,6.32903226 14.9818674,5.38064516 16.091152,4.90967742 C16.6262187,4.68387097 17.8790578,4.1483871 17.9377847,4.12903226 C18.1204904,4.07096774 18.27057,4 18.4206497,4.12903226 C18.5837798,4.30322581 18.525053,4.72903226 17.4810204,5.67096774 C16.7240968,6.36129032 15.960648,7.03225806 15.1449975,7.64516129 C14.8970398,7.12258065 14.3358723,6.22580645 12.4892397,6.54193548 C7.43873209,7.41290323 6.60350603,9.80645161 6.61003123,10.3225806 C6.61003123,10.4903226 6.68833367,10.5225806 6.72748489,10.5290323 C6.85146376,10.2774194 7.67363941,8.4 11.1450477,7.4516129 C13.1026088,6.91612903 14.6882333,6.59354839 15.2755016,8.43870968 C15.2950772,8.50322581 15.2755016,8.55483871 15.2428756,8.57419355 C14.7665357,8.86451613 14.3162967,9.28387097 13.9769861,9.63870968 C13.879108,9.74193548 13.8334316,9.90967742 13.8921584,10.083871 C13.9052088,10.116129 14.1270658,10.5548387 14.2445194,10.7419355 C14.3684983,10.9290323 14.5316284,11.1677419 15.001443,10.8645161 C15.0340691,10.8774194 15.1776235,10.9354839 15.288552,10.9032258 C15.4777829,10.8258065 15.5299845,10.4451613 15.6017618,10.4322581 C15.673539,10.4193548 15.6996398,10.4903226 15.8170935,10.4451613 C15.9541228,10.4 15.8627699,10.0258065 15.7518415,9.90322581 C15.6800642,9.82580645 15.5365097,9.81290323 15.4255813,9.81290323 C15.2167748,9.81290323 15.0210186,9.90322581 14.8970398,9.98064516 C14.870939,9.99354839 14.8448382,9.96129032 14.8578886,9.93548387 C14.9622918,9.72903226 15.1319471,9.55483871 15.3799048,9.42580645 C15.4451569,9.39354839 15.5299845,9.35483871 15.575661,9.26451613 C15.6539634,9.10322581 15.5887114,8.92903226 15.5495601,8.8 C15.5169341,8.69677419 15.2950772,8.0516129 15.2950772,8.04516129 C16.3521602,7.27096774 18.172692,5.66451613 18.6881831,4.67096774 C18.7795359,4.49677419 18.8056367,4.16129032 18.6751327,3.96774194 Z"/>
      </g>
      <path fill="#1B3F94" d="M0.816062176,19.8524096 L1.41450777,19.8524096 L1.41450777,19.4096386 C1.41450777,19.1927711 1.3873057,19.0301205 1.3873057,19.0301205 L1.40544041,19.0301205 C1.40544041,19.0301205 1.8134715,19.9608434 2.91062176,19.9608434 C4.10751295,19.9608434 4.96891192,19.0210843 4.96891192,17.5843373 C4.96891192,16.1746988 4.20725389,15.1987952 2.98316062,15.1987952 C1.82253886,15.1987952 1.42357513,16.1204819 1.42357513,16.1204819 L1.40544041,16.1204819 C1.40544041,16.1204819 1.43264249,15.9578313 1.43264249,15.7409639 L1.43264249,13.5 L0,13.5 L0,14.0060241 L0.816062176,14.0060241 L0.816062176,19.8524096 Z M1.41450777,17.5933735 C1.41450777,16.3012048 2.13082902,15.7590361 2.89248705,15.7590361 C3.74481865,15.7590361 4.34326425,16.4728916 4.34326425,17.5843373 C4.34326425,18.7409639 3.67227979,19.4096386 2.86528497,19.4096386 C1.89507772,19.4096386 1.41450777,18.5060241 1.41450777,17.5933735 Z M5.93911917,20.9909639 L5.70336788,21.4789157 C5.70336788,21.4789157 6.04792746,21.75 6.56476684,21.75 C7.19948187,21.75 7.69818653,21.3433735 7.9611399,20.6927711 L9.9015544,15.813253 L10.5,15.813253 L10.5,15.3072289 L8.61398964,15.3072289 L8.61398964,15.813253 L9.27590674,15.813253 L8.07901554,18.9126506 C8.01554404,19.0843373 7.98834197,19.2379518 7.98834197,19.2379518 L7.9611399,19.2379518 C7.9611399,19.2379518 7.94300518,19.0843373 7.88860104,18.9126506 L6.69170984,15.813253 L7.35362694,15.813253 L7.35362694,15.3072289 L5.44041451,15.3072289 L5.44041451,15.813253 L6.0388601,15.813253 L7.67098446,19.8795181 L7.41709845,20.4849398 C7.24481865,20.8825301 6.95466321,21.2078313 6.54663212,21.2078313 C6.20207254,21.2078313 5.93911917,20.9909639 5.93911917,20.9909639 Z"/>
    </g>
  </g>
</svg>
